<svg xmlns="http://www.w3.org/2000/svg" width="512" height="512" viewBox="0 0 512 512" fill="none">
<defs>
  <style>
    .s { stroke: currentColor; stroke-width: 3; stroke-linecap: round; stroke-linejoin: round; vector-effect: non-scaling-stroke; }
    .m { stroke: currentColor; stroke-width: 2; stroke-linecap: round; stroke-linejoin: round; vector-effect: non-scaling-stroke; }
    .t { stroke: currentColor; stroke-width: 1.4; stroke-linecap: round; stroke-linejoin: round; vector-effect: non-scaling-stroke; }
  </style>
</defs>
<g color="#000000">
<polygon class="s" points="88.04,88.04 39.96,88.04 39.96,39.96 88.04,39.96"/>
<polygon class="t" points="80.00,64.00 64.00,80.00 48.00,64.00 64.00,48.00"/>
<polygon class="s" points="88.04,216.04 39.96,216.04 39.96,167.96 88.04,167.96"/>
<polygon class="t" points="80.00,192.00 64.00,208.00 48.00,192.00 64.00,176.00"/>
<polygon class="s" points="88.04,344.04 39.96,344.04 39.96,295.96 88.04,295.96"/>
<polygon class="t" points="80.00,320.00 64.00,336.00 48.00,320.00 64.00,304.00"/>
<polygon class="s" points="88.04,472.04 39.96,472.04 39.96,423.96 88.04,423.96"/>
<polygon class="t" points="80.00,448.00 64.00,464.00 48.00,448.00 64.00,432.00"/>
<polygon class="s" points="216.04,88.04 167.96,88.04 167.96,39.96 216.04,39.96"/>
<polygon class="t" points="208.00,64.00 192.00,80.00 176.00,64.00 192.00,48.00"/>
<polygon class="s" points="216.04,216.04 167.96,216.04 167.96,167.96 216.04,167.96"/>
<polygon class="t" points="208.00,192.00 192.00,208.00 176.00,192.00 192.00,176.00"/>
<polygon class="s" points="216.04,344.04 167.96,344.04 167.96,295.96 216.04,295.96"/>
<polygon class="t" points="208.00,320.00 192.00,336.00 176.00,320.00 192.00,304.00"/>
<polygon class="s" points="216.04,472.04 167.96,472.04 167.96,423.96 216.04,423.96"/>
<polygon class="t" points="208.00,448.00 192.00,464.00 176.00,448.00 192.00,432.00"/>
<polygon class="s" points="344.04,88.04 295.96,88.04 295.96,39.96 344.04,39.96"/>
<polygon class="t" points="336.00,64.00 320.00,80.00 304.00,64.00 320.00,48.00"/>
<polygon class="s" points="344.04,216.04 295.96,216.04 295.96,167.96 344.04,167.96"/>
<polygon class="t" points="336.00,192.00 320.00,208.00 304.00,192.00 320.00,176.00"/>
<polygon class="s" points="344.04,344.04 295.96,344.04 295.96,295.96 344.04,295.96"/>
<polygon class="t" points="336.00,320.00 320.00,336.00 304.00,320.00 320.00,304.00"/>
<polygon class="s" points="344.04,472.04 295.96,472.04 295.96,423.96 344.04,423.96"/>
<polygon class="t" points="336.00,448.00 320.00,464.00 304.00,448.00 320.00,432.00"/>
<polygon class="s" points="472.04,88.04 423.96,88.04 423.96,39.96 472.04,39.96"/>
<polygon class="t" points="464.00,64.00 448.00,80.00 432.00,64.00 448.00,48.00"/>
<polygon class="s" points="472.04,216.04 423.96,216.04 423.96,167.96 472.04,167.96"/>
<polygon class="t" points="464.00,192.00 448.00,208.00 432.00,192.00 448.00,176.00"/>
<polygon class="s" points="472.04,344.04 423.96,344.04 423.96,295.96 472.04,295.96"/>
<polygon class="t" points="464.00,320.00 448.00,336.00 432.00,320.00 448.00,304.00"/>
<polygon class="s" points="472.04,472.04 423.96,472.04 423.96,423.96 472.04,423.96"/>
<polygon class="t" points="464.00,448.00 448.00,464.00 432.00,448.00 448.00,432.00"/>
<polygon class="s" points="166.80,144.07 143.56,143.56 144.07,166.80 128.00,150.00 111.93,166.80 112.44,143.56 89.20,144.07 106.00,128.00 89.20,111.93 112.44,112.44 111.93,89.20 128.00,106.00 144.07,89.20 143.56,112.44 166.80,111.93 150.00,128.00"/>
<polygon class="s" points="166.80,272.07 143.56,271.56 144.07,294.80 128.00,278.00 111.93,294.80 112.44,271.56 89.20,272.07 106.00,256.00 89.20,239.93 112.44,240.44 111.93,217.20 128.00,234.00 144.07,217.20 143.56,240.44 166.80,239.93 150.00,256.00"/>
<polygon class="s" points="166.80,400.07 143.56,399.56 144.07,422.80 128.00,406.00 111.93,422.80 112.44,399.56 89.20,400.07 106.00,384.00 89.20,367.93 112.44,368.44 111.93,345.20 128.00,362.00 144.07,345.20 143.56,368.44 166.80,367.93 150.00,384.00"/>
<polygon class="s" points="294.80,144.07 271.56,143.56 272.07,166.80 256.00,150.00 239.93,166.80 240.44,143.56 217.20,144.07 234.00,128.00 217.20,111.93 240.44,112.44 239.93,89.20 256.00,106.00 272.07,89.20 271.56,112.44 294.80,111.93 278.00,128.00"/>
<polygon class="s" points="294.80,272.07 271.56,271.56 272.07,294.80 256.00,278.00 239.93,294.80 240.44,271.56 217.20,272.07 234.00,256.00 217.20,239.93 240.44,240.44 239.93,217.20 256.00,234.00 272.07,217.20 271.56,240.44 294.80,239.93 278.00,256.00"/>
<polygon class="s" points="294.80,400.07 271.56,399.56 272.07,422.80 256.00,406.00 239.93,422.80 240.44,399.56 217.20,400.07 234.00,384.00 217.20,367.93 240.44,368.44 239.93,345.20 256.00,362.00 272.07,345.20 271.56,368.44 294.80,367.93 278.00,384.00"/>
<polygon class="s" points="422.80,144.07 399.56,143.56 400.07,166.80 384.00,150.00 367.93,166.80 368.44,143.56 345.20,144.07 362.00,128.00 345.20,111.93 368.44,112.44 367.93,89.20 384.00,106.00 400.07,89.20 399.56,112.44 422.80,111.93 406.00,128.00"/>
<polygon class="s" points="422.80,272.07 399.56,271.56 400.07,294.80 384.00,278.00 367.93,294.80 368.44,271.56 345.20,272.07 362.00,256.00 345.20,239.93 368.44,240.44 367.93,217.20 384.00,234.00 400.07,217.20 399.56,240.44 422.80,239.93 406.00,256.00"/>
<polygon class="s" points="422.80,400.07 399.56,399.56 400.07,422.80 384.00,406.00 367.93,422.80 368.44,399.56 345.20,400.07 362.00,384.00 345.20,367.93 368.44,368.44 367.93,345.20 384.00,362.00 400.07,345.20 399.56,368.44 422.80,367.93 406.00,384.00"/>
<line class="m" x1="98" y1="64" x2="158" y2="64"/>
<line class="m" x1="226" y1="64" x2="286" y2="64"/>
<line class="m" x1="354" y1="64" x2="414" y2="64"/>
<line class="m" x1="98" y1="192" x2="158" y2="192"/>
<line class="m" x1="226" y1="192" x2="286" y2="192"/>
<line class="m" x1="354" y1="192" x2="414" y2="192"/>
<line class="m" x1="98" y1="320" x2="158" y2="320"/>
<line class="m" x1="226" y1="320" x2="286" y2="320"/>
<line class="m" x1="354" y1="320" x2="414" y2="320"/>
<line class="m" x1="98" y1="448" x2="158" y2="448"/>
<line class="m" x1="226" y1="448" x2="286" y2="448"/>
<line class="m" x1="354" y1="448" x2="414" y2="448"/>
<line class="m" x1="64" y1="98" x2="64" y2="158"/>
<line class="m" x1="64" y1="226" x2="64" y2="286"/>
<line class="m" x1="64" y1="354" x2="64" y2="414"/>
<line class="m" x1="192" y1="98" x2="192" y2="158"/>
<line class="m" x1="192" y1="226" x2="192" y2="286"/>
<line class="m" x1="192" y1="354" x2="192" y2="414"/>
<line class="m" x1="320" y1="98" x2="320" y2="158"/>
<line class="m" x1="320" y1="226" x2="320" y2="286"/>
<line class="m" x1="320" y1="354" x2="320" y2="414"/>
<line class="m" x1="448" y1="98" x2="448" y2="158"/>
<line class="m" x1="448" y1="226" x2="448" y2="286"/>
<line class="m" x1="448" y1="354" x2="448" y2="414"/>
<polygon class="t" points="20.00,20.00 60.00,20.00 40.00,40.00" transform="translate(0,0) rotate(0 0 0)"/>
<polygon class="t" points="20.00,20.00 60.00,20.00 40.00,40.00" transform="translate(512,0) rotate(90 0 0)"/>
<polygon class="t" points="20.00,20.00 60.00,20.00 40.00,40.00" transform="translate(512,512) rotate(180 0 0)"/>
<polygon class="t" points="20.00,20.00 60.00,20.00 40.00,40.00" transform="translate(0,512) rotate(270 0 0)"/>
</g>
</svg>