<svg xmlns="http://www.w3.org/2000/svg" width="512" height="512" viewBox="0 0 512 512" fill="none">
    <defs>
      <style>
        .s { stroke: currentColor; stroke-width: 3; stroke-linecap: round; stroke-linejoin: round; vector-effect: non-scaling-stroke; }
        .t { stroke: currentColor; stroke-width: 1.5; stroke-linecap: round; stroke-linejoin: round; vector-effect: non-scaling-stroke; }
      </style>
    </defs>
    <g color="#000000">
<polygon class="s" points="72.06,29.85 32.53,32.53 29.85,72.06 0.00,46.00 -29.85,72.06 -32.53,32.53 -72.06,29.85 -46.00,0.00 -72.06,-29.85 -32.53,-32.53 -29.85,-72.06 -0.00,-46.00 29.85,-72.06 32.53,-32.53 72.06,-29.85 46.00,-0.00"/>
<polygon class="s" points="328.06,29.85 288.53,32.53 285.85,72.06 256.00,46.00 226.15,72.06 223.47,32.53 183.94,29.85 210.00,0.00 183.94,-29.85 223.47,-32.53 226.15,-72.06 256.00,-46.00 285.85,-72.06 288.53,-32.53 328.06,-29.85 302.00,-0.00"/>
<polygon class="s" points="584.06,29.85 544.53,32.53 541.85,72.06 512.00,46.00 482.15,72.06 479.47,32.53 439.94,29.85 466.00,0.00 439.94,-29.85 479.47,-32.53 482.15,-72.06 512.00,-46.00 541.85,-72.06 544.53,-32.53 584.06,-29.85 558.00,-0.00"/>
<polygon class="s" points="72.06,285.85 32.53,288.53 29.85,328.06 0.00,302.00 -29.85,328.06 -32.53,288.53 -72.06,285.85 -46.00,256.00 -72.06,226.15 -32.53,223.47 -29.85,183.94 -0.00,210.00 29.85,183.94 32.53,223.47 72.06,226.15 46.00,256.00"/>
<polygon class="s" points="328.06,285.85 288.53,288.53 285.85,328.06 256.00,302.00 226.15,328.06 223.47,288.53 183.94,285.85 210.00,256.00 183.94,226.15 223.47,223.47 226.15,183.94 256.00,210.00 285.85,183.94 288.53,223.47 328.06,226.15 302.00,256.00"/>
<polygon class="s" points="584.06,285.85 544.53,288.53 541.85,328.06 512.00,302.00 482.15,328.06 479.47,288.53 439.94,285.85 466.00,256.00 439.94,226.15 479.47,223.47 482.15,183.94 512.00,210.00 541.85,183.94 544.53,223.47 584.06,226.15 558.00,256.00"/>
<polygon class="s" points="72.06,541.85 32.53,544.53 29.85,584.06 0.00,558.00 -29.85,584.06 -32.53,544.53 -72.06,541.85 -46.00,512.00 -72.06,482.15 -32.53,479.47 -29.85,439.94 -0.00,466.00 29.85,439.94 32.53,479.47 72.06,482.15 46.00,512.00"/>
<polygon class="s" points="328.06,541.85 288.53,544.53 285.85,584.06 256.00,558.00 226.15,584.06 223.47,544.53 183.94,541.85 210.00,512.00 183.94,482.15 223.47,479.47 226.15,439.94 256.00,466.00 285.85,439.94 288.53,479.47 328.06,482.15 302.00,512.00"/>
<polygon class="s" points="584.06,541.85 544.53,544.53 541.85,584.06 512.00,558.00 482.15,584.06 479.47,544.53 439.94,541.85 466.00,512.00 439.94,482.15 479.47,479.47 482.15,439.94 512.00,466.00 541.85,439.94 544.53,479.47 584.06,482.15 558.00,512.00"/>
<polygon class="s" points="176.04,147.90 147.90,176.04 108.10,176.04 79.96,147.90 79.96,108.10 108.10,79.96 147.90,79.96 176.04,108.10"/>
<polygon class="t" points="153.87,138.72 138.72,153.87 117.28,153.87 102.13,138.72 102.13,117.28 117.28,102.13 138.72,102.13 153.87,117.28"/>
<polygon class="s" points="432.04,147.90 403.90,176.04 364.10,176.04 335.96,147.90 335.96,108.10 364.10,79.96 403.90,79.96 432.04,108.10"/>
<polygon class="t" points="409.87,138.72 394.72,153.87 373.28,153.87 358.13,138.72 358.13,117.28 373.28,102.13 394.72,102.13 409.87,117.28"/>
<polygon class="s" points="176.04,403.90 147.90,432.04 108.10,432.04 79.96,403.90 79.96,364.10 108.10,335.96 147.90,335.96 176.04,364.10"/>
<polygon class="t" points="153.87,394.72 138.72,409.87 117.28,409.87 102.13,394.72 102.13,373.28 117.28,358.13 138.72,358.13 153.87,373.28"/>
<polygon class="s" points="432.04,403.90 403.90,432.04 364.10,432.04 335.96,403.90 335.96,364.10 364.10,335.96 403.90,335.96 432.04,364.10"/>
<polygon class="t" points="409.87,394.72 394.72,409.87 373.28,409.87 358.13,394.72 358.13,373.28 373.28,358.13 394.72,358.13 409.87,373.28"/>
<polygon class="t" points="143.56,15.56 112.44,15.56 112.44,-15.56 143.56,-15.56"/>
<polygon class="t" points="399.56,15.56 368.44,15.56 368.44,-15.56 399.56,-15.56"/>
<polygon class="t" points="143.56,271.56 112.44,271.56 112.44,240.44 143.56,240.44"/>
<polygon class="t" points="399.56,271.56 368.44,271.56 368.44,240.44 399.56,240.44"/>
<polygon class="t" points="143.56,527.56 112.44,527.56 112.44,496.44 143.56,496.44"/>
<polygon class="t" points="399.56,527.56 368.44,527.56 368.44,496.44 399.56,496.44"/>
<polygon class="t" points="15.56,143.56 -15.56,143.56 -15.56,112.44 15.56,112.44"/>
<polygon class="t" points="271.56,143.56 240.44,143.56 240.44,112.44 271.56,112.44"/>
<polygon class="t" points="527.56,143.56 496.44,143.56 496.44,112.44 527.56,112.44"/>
<polygon class="t" points="15.56,399.56 -15.56,399.56 -15.56,368.44 15.56,368.44"/>
<polygon class="t" points="271.56,399.56 240.44,399.56 240.44,368.44 271.56,368.44"/>
<polygon class="t" points="527.56,399.56 496.44,399.56 496.44,368.44 527.56,368.44"/>
<line class="t" x1="164.77" y1="164.77" x2="191.64" y2="191.64"/>
<line class="t" x1="91.23" y1="164.77" x2="64.36" y2="191.64"/>
<line class="t" x1="91.23" y1="91.23" x2="64.36" y2="64.36"/>
<line class="t" x1="164.77" y1="91.23" x2="191.64" y2="64.36"/>
<line class="t" x1="420.77" y1="164.77" x2="447.64" y2="191.64"/>
<line class="t" x1="347.23" y1="164.77" x2="320.36" y2="191.64"/>
<line class="t" x1="347.23" y1="91.23" x2="320.36" y2="64.36"/>
<line class="t" x1="420.77" y1="91.23" x2="447.64" y2="64.36"/>
<line class="t" x1="164.77" y1="420.77" x2="191.64" y2="447.64"/>
<line class="t" x1="91.23" y1="420.77" x2="64.36" y2="447.64"/>
<line class="t" x1="91.23" y1="347.23" x2="64.36" y2="320.36"/>
<line class="t" x1="164.77" y1="347.23" x2="191.64" y2="320.36"/>
<line class="t" x1="420.77" y1="420.77" x2="447.64" y2="447.64"/>
<line class="t" x1="347.23" y1="420.77" x2="320.36" y2="447.64"/>
<line class="t" x1="347.23" y1="347.23" x2="320.36" y2="320.36"/>
<line class="t" x1="420.77" y1="347.23" x2="447.64" y2="320.36"/>
<polygon class="t" points="274.00,128.00 256.00,146.00 238.00,128.00 256.00,110.00"/>
<polygon class="t" points="146.00,256.00 128.00,274.00 110.00,256.00 128.00,238.00"/>
<polygon class="t" points="402.00,256.00 384.00,274.00 366.00,256.00 384.00,238.00"/>
<polygon class="t" points="274.00,384.00 256.00,402.00 238.00,384.00 256.00,366.00"/>
<polygon class="t" points="80.63,262.89 71.07,263.07 70.89,272.63 64.00,266.00 57.11,272.63 56.93,263.07 47.37,262.89 54.00,256.00 47.37,249.11 56.93,248.93 57.11,239.37 64.00,246.00 70.89,239.37 71.07,248.93 80.63,249.11 74.00,256.00"/>
<polygon class="t" points="208.63,262.89 199.07,263.07 198.89,272.63 192.00,266.00 185.11,272.63 184.93,263.07 175.37,262.89 182.00,256.00 175.37,249.11 184.93,248.93 185.11,239.37 192.00,246.00 198.89,239.37 199.07,248.93 208.63,249.11 202.00,256.00"/>
<polygon class="t" points="336.63,262.89 327.07,263.07 326.89,272.63 320.00,266.00 313.11,272.63 312.93,263.07 303.37,262.89 310.00,256.00 303.37,249.11 312.93,248.93 313.11,239.37 320.00,246.00 326.89,239.37 327.07,248.93 336.63,249.11 330.00,256.00"/>
<polygon class="t" points="464.63,262.89 455.07,263.07 454.89,272.63 448.00,266.00 441.11,272.63 440.93,263.07 431.37,262.89 438.00,256.00 431.37,249.11 440.93,248.93 441.11,239.37 448.00,246.00 454.89,239.37 455.07,248.93 464.63,249.11 458.00,256.00"/>
<polygon class="t" points="272.63,70.89 263.07,71.07 262.89,80.63 256.00,74.00 249.11,80.63 248.93,71.07 239.37,70.89 246.00,64.00 239.37,57.11 248.93,56.93 249.11,47.37 256.00,54.00 262.89,47.37 263.07,56.93 272.63,57.11 266.00,64.00"/>
<polygon class="t" points="272.63,198.89 263.07,199.07 262.89,208.63 256.00,202.00 249.11,208.63 248.93,199.07 239.37,198.89 246.00,192.00 239.37,185.11 248.93,184.93 249.11,175.37 256.00,182.00 262.89,175.37 263.07,184.93 272.63,185.11 266.00,192.00"/>
<polygon class="t" points="272.63,326.89 263.07,327.07 262.89,336.63 256.00,330.00 249.11,336.63 248.93,327.07 239.37,326.89 246.00,320.00 239.37,313.11 248.93,312.93 249.11,303.37 256.00,310.00 262.89,303.37 263.07,312.93 272.63,313.11 266.00,320.00"/>
<polygon class="t" points="272.63,454.89 263.07,455.07 262.89,464.63 256.00,458.00 249.11,464.63 248.93,455.07 239.37,454.89 246.00,448.00 239.37,441.11 248.93,440.93 249.11,431.37 256.00,438.00 262.89,431.37 263.07,440.93 272.63,441.11 266.00,448.00"/>
</g></svg>