<svg xmlns="http://www.w3.org/2000/svg" width="512" height="512" viewBox="0 0 512 512" fill="none">
<defs>
  <style>
    .s { stroke: currentColor; stroke-width: 3; stroke-linecap: round; stroke-linejoin: round; vector-effect: non-scaling-stroke; }
    .m { stroke: currentColor; stroke-width: 2; stroke-linecap: round; stroke-linejoin: round; vector-effect: non-scaling-stroke; }
    .t { stroke: currentColor; stroke-width: 1.4; stroke-linecap: round; stroke-linejoin: round; vector-effect: non-scaling-stroke; }
  </style>
</defs>
<g color="#000000">
<polygon class="s" points="72.06,29.85 32.53,32.53 29.85,72.06 0.00,46.00 -29.85,72.06 -32.53,32.53 -72.06,29.85 -46.00,0.00 -72.06,-29.85 -32.53,-32.53 -29.85,-72.06 -0.00,-46.00 29.85,-72.06 32.53,-32.53 72.06,-29.85 46.00,-0.00"/>
<polygon class="s" points="328.06,29.85 288.53,32.53 285.85,72.06 256.00,46.00 226.15,72.06 223.47,32.53 183.94,29.85 210.00,0.00 183.94,-29.85 223.47,-32.53 226.15,-72.06 256.00,-46.00 285.85,-72.06 288.53,-32.53 328.06,-29.85 302.00,-0.00"/>
<polygon class="s" points="584.06,29.85 544.53,32.53 541.85,72.06 512.00,46.00 482.15,72.06 479.47,32.53 439.94,29.85 466.00,0.00 439.94,-29.85 479.47,-32.53 482.15,-72.06 512.00,-46.00 541.85,-72.06 544.53,-32.53 584.06,-29.85 558.00,-0.00"/>
<polygon class="s" points="72.06,285.85 32.53,288.53 29.85,328.06 0.00,302.00 -29.85,328.06 -32.53,288.53 -72.06,285.85 -46.00,256.00 -72.06,226.15 -32.53,223.47 -29.85,183.94 -0.00,210.00 29.85,183.94 32.53,223.47 72.06,226.15 46.00,256.00"/>
<polygon class="s" points="328.06,285.85 288.53,288.53 285.85,328.06 256.00,302.00 226.15,328.06 223.47,288.53 183.94,285.85 210.00,256.00 183.94,226.15 223.47,223.47 226.15,183.94 256.00,210.00 285.85,183.94 288.53,223.47 328.06,226.15 302.00,256.00"/>
<polygon class="s" points="584.06,285.85 544.53,288.53 541.85,328.06 512.00,302.00 482.15,328.06 479.47,288.53 439.94,285.85 466.00,256.00 439.94,226.15 479.47,223.47 482.15,183.94 512.00,210.00 541.85,183.94 544.53,223.47 584.06,226.15 558.00,256.00"/>
<polygon class="s" points="72.06,541.85 32.53,544.53 29.85,584.06 0.00,558.00 -29.85,584.06 -32.53,544.53 -72.06,541.85 -46.00,512.00 -72.06,482.15 -32.53,479.47 -29.85,439.94 -0.00,466.00 29.85,439.94 32.53,479.47 72.06,482.15 46.00,512.00"/>
<polygon class="s" points="328.06,541.85 288.53,544.53 285.85,584.06 256.00,558.00 226.15,584.06 223.47,544.53 183.94,541.85 210.00,512.00 183.94,482.15 223.47,479.47 226.15,439.94 256.00,466.00 285.85,439.94 288.53,479.47 328.06,482.15 302.00,512.00"/>
<polygon class="s" points="584.06,541.85 544.53,544.53 541.85,584.06 512.00,558.00 482.15,584.06 479.47,544.53 439.94,541.85 466.00,512.00 439.94,482.15 479.47,479.47 482.15,439.94 512.00,466.00 541.85,439.94 544.53,479.47 584.06,482.15 558.00,512.00"/>
<polygon class="s" points="176.04,147.90 147.90,176.04 108.10,176.04 79.96,147.90 79.96,108.10 108.10,79.96 147.90,79.96 176.04,108.10"/>
<polygon class="t" points="153.87,138.72 138.72,153.87 117.28,153.87 102.13,138.72 102.13,117.28 117.28,102.13 138.72,102.13 153.87,117.28"/>
<polygon class="s" points="432.04,147.90 403.90,176.04 364.10,176.04 335.96,147.90 335.96,108.10 364.10,79.96 403.90,79.96 432.04,108.10"/>
<polygon class="t" points="409.87,138.72 394.72,153.87 373.28,153.87 358.13,138.72 358.13,117.28 373.28,102.13 394.72,102.13 409.87,117.28"/>
<polygon class="s" points="176.04,403.90 147.90,432.04 108.10,432.04 79.96,403.90 79.96,364.10 108.10,335.96 147.90,335.96 176.04,364.10"/>
<polygon class="t" points="153.87,394.72 138.72,409.87 117.28,409.87 102.13,394.72 102.13,373.28 117.28,358.13 138.72,358.13 153.87,373.28"/>
<polygon class="s" points="432.04,403.90 403.90,432.04 364.10,432.04 335.96,403.90 335.96,364.10 364.10,335.96 403.90,335.96 432.04,364.10"/>
<polygon class="t" points="409.87,394.72 394.72,409.87 373.28,409.87 358.13,394.72 358.13,373.28 373.28,358.13 394.72,358.13 409.87,373.28"/>
<polygon class="t" points="143.56,15.56 112.44,15.56 112.44,-15.56 143.56,-15.56"/>
<polygon class="t" points="399.56,15.56 368.44,15.56 368.44,-15.56 399.56,-15.56"/>
<polygon class="t" points="143.56,271.56 112.44,271.56 112.44,240.44 143.56,240.44"/>
<polygon class="t" points="399.56,271.56 368.44,271.56 368.44,240.44 399.56,240.44"/>
<polygon class="t" points="143.56,527.56 112.44,527.56 112.44,496.44 143.56,496.44"/>
<polygon class="t" points="399.56,527.56 368.44,527.56 368.44,496.44 399.56,496.44"/>
<polygon class="t" points="15.56,143.56 -15.56,143.56 -15.56,112.44 15.56,112.44"/>
<polygon class="t" points="271.56,143.56 240.44,143.56 240.44,112.44 271.56,112.44"/>
<polygon class="t" points="527.56,143.56 496.44,143.56 496.44,112.44 527.56,112.44"/>
<polygon class="t" points="15.56,399.56 -15.56,399.56 -15.56,368.44 15.56,368.44"/>
<polygon class="t" points="271.56,399.56 240.44,399.56 240.44,368.44 271.56,368.44"/>
<polygon class="t" points="527.56,399.56 496.44,399.56 496.44,368.44 527.56,368.44"/>
<line class="t" x1="164.77" y1="164.77" x2="193.05" y2="193.05"/>
<line class="t" x1="91.23" y1="164.77" x2="62.95" y2="193.05"/>
<line class="t" x1="91.23" y1="91.23" x2="62.95" y2="62.95"/>
<line class="t" x1="164.77" y1="91.23" x2="193.05" y2="62.95"/>
<line class="t" x1="420.77" y1="164.77" x2="449.05" y2="193.05"/>
<line class="t" x1="347.23" y1="164.77" x2="318.95" y2="193.05"/>
<line class="t" x1="347.23" y1="91.23" x2="318.95" y2="62.95"/>
<line class="t" x1="420.77" y1="91.23" x2="449.05" y2="62.95"/>
<line class="t" x1="164.77" y1="420.77" x2="193.05" y2="449.05"/>
<line class="t" x1="91.23" y1="420.77" x2="62.95" y2="449.05"/>
<line class="t" x1="91.23" y1="347.23" x2="62.95" y2="318.95"/>
<line class="t" x1="164.77" y1="347.23" x2="193.05" y2="318.95"/>
<line class="t" x1="420.77" y1="420.77" x2="449.05" y2="449.05"/>
<line class="t" x1="347.23" y1="420.77" x2="318.95" y2="449.05"/>
<line class="t" x1="347.23" y1="347.23" x2="318.95" y2="318.95"/>
<line class="t" x1="420.77" y1="347.23" x2="449.05" y2="318.95"/>
</g>
</svg>